<svg xmlns="http://www.w3.org/2000/svg" xmlns:xlink="http://www.w3.org/1999/xlink" width="321" height="166" viewBox="0 0 321 166"><defs><clipPath id="clip-path"><rect width="167" height="321" fill="none"/></clipPath><clipPath id="clip-BG_SetorClientes"><rect width="321" height="166"/></clipPath></defs><g id="BG_SetorClientes" clip-path="url(#clip-BG_SetorClientes)"><g id="Repetição_de_grade_40" data-name="Repetição de grade 40" transform="translate(320.5 -0.5) rotate(90)" opacity="0.6" clip-path="url(#clip-path)"><g transform="translate(-1551 -1320)"><circle id="Elipse_6" data-name="Elipse 6" cx="5.5" cy="5.5" r="5.5" transform="translate(1551 1320)" fill="#c0d6f2"/></g><g transform="translate(-1520 -1320)"><circle id="Elipse_6-2" data-name="Elipse 6" cx="5.5" cy="5.5" r="5.5" transform="translate(1551 1320)" fill="#c0d6f2"/></g><g transform="translate(-1489 -1320)"><circle id="Elipse_6-3" data-name="Elipse 6" cx="5.5" cy="5.5" r="5.5" transform="translate(1551 1320)" fill="#c0d6f2"/></g><g transform="translate(-1458 -1320)"><circle id="Elipse_6-4" data-name="Elipse 6" cx="5.5" cy="5.5" r="5.5" transform="translate(1551 1320)" fill="#c0d6f2"/></g><g transform="translate(-1427 -1320)"><circle id="Elipse_6-5" data-name="Elipse 6" cx="5.5" cy="5.5" r="5.5" transform="translate(1551 1320)" fill="#c0d6f2"/></g><g transform="translate(-1396 -1320)"><circle id="Elipse_6-6" data-name="Elipse 6" cx="5.5" cy="5.5" r="5.5" transform="translate(1551 1320)" fill="#c0d6f2"/></g><g transform="translate(-1551 -1289)"><circle id="Elipse_6-7" data-name="Elipse 6" cx="5.5" cy="5.5" r="5.5" transform="translate(1551 1320)" fill="#c0d6f2"/></g><g transform="translate(-1520 -1289)"><circle id="Elipse_6-8" data-name="Elipse 6" cx="5.5" cy="5.5" r="5.5" transform="translate(1551 1320)" fill="#c0d6f2"/></g><g transform="translate(-1489 -1289)"><circle id="Elipse_6-9" data-name="Elipse 6" cx="5.5" cy="5.5" r="5.5" transform="translate(1551 1320)" fill="#c0d6f2"/></g><g transform="translate(-1458 -1289)"><circle id="Elipse_6-10" data-name="Elipse 6" cx="5.5" cy="5.5" r="5.5" transform="translate(1551 1320)" fill="#c0d6f2"/></g><g transform="translate(-1427 -1289)"><circle id="Elipse_6-11" data-name="Elipse 6" cx="5.5" cy="5.5" r="5.5" transform="translate(1551 1320)" fill="#c0d6f2"/></g><g transform="translate(-1396 -1289)"><circle id="Elipse_6-12" data-name="Elipse 6" cx="5.5" cy="5.5" r="5.5" transform="translate(1551 1320)" fill="#c0d6f2"/></g><g transform="translate(-1551 -1258)"><circle id="Elipse_6-13" data-name="Elipse 6" cx="5.5" cy="5.5" r="5.5" transform="translate(1551 1320)" fill="#c0d6f2"/></g><g transform="translate(-1520 -1258)"><circle id="Elipse_6-14" data-name="Elipse 6" cx="5.5" cy="5.5" r="5.5" transform="translate(1551 1320)" fill="#c0d6f2"/></g><g transform="translate(-1489 -1258)"><circle id="Elipse_6-15" data-name="Elipse 6" cx="5.5" cy="5.5" r="5.5" transform="translate(1551 1320)" fill="#c0d6f2"/></g><g transform="translate(-1458 -1258)"><circle id="Elipse_6-16" data-name="Elipse 6" cx="5.5" cy="5.5" r="5.5" transform="translate(1551 1320)" fill="#c0d6f2"/></g><g transform="translate(-1427 -1258)"><circle id="Elipse_6-17" data-name="Elipse 6" cx="5.5" cy="5.5" r="5.5" transform="translate(1551 1320)" fill="#c0d6f2"/></g><g transform="translate(-1396 -1258)"><circle id="Elipse_6-18" data-name="Elipse 6" cx="5.5" cy="5.5" r="5.5" transform="translate(1551 1320)" fill="#c0d6f2"/></g><g transform="translate(-1551 -1227)"><circle id="Elipse_6-19" data-name="Elipse 6" cx="5.5" cy="5.5" r="5.5" transform="translate(1551 1320)" fill="#c0d6f2"/></g><g transform="translate(-1520 -1227)"><circle id="Elipse_6-20" data-name="Elipse 6" cx="5.5" cy="5.5" r="5.5" transform="translate(1551 1320)" fill="#c0d6f2"/></g><g transform="translate(-1489 -1227)"><circle id="Elipse_6-21" data-name="Elipse 6" cx="5.5" cy="5.5" r="5.5" transform="translate(1551 1320)" fill="#c0d6f2"/></g><g transform="translate(-1458 -1227)"><circle id="Elipse_6-22" data-name="Elipse 6" cx="5.5" cy="5.5" r="5.5" transform="translate(1551 1320)" fill="#c0d6f2"/></g><g transform="translate(-1427 -1227)"><circle id="Elipse_6-23" data-name="Elipse 6" cx="5.5" cy="5.5" r="5.5" transform="translate(1551 1320)" fill="#c0d6f2"/></g><g transform="translate(-1396 -1227)"><circle id="Elipse_6-24" data-name="Elipse 6" cx="5.5" cy="5.5" r="5.5" transform="translate(1551 1320)" fill="#c0d6f2"/></g><g transform="translate(-1551 -1196)"><circle id="Elipse_6-25" data-name="Elipse 6" cx="5.5" cy="5.5" r="5.5" transform="translate(1551 1320)" fill="#c0d6f2"/></g><g transform="translate(-1520 -1196)"><circle id="Elipse_6-26" data-name="Elipse 6" cx="5.5" cy="5.5" r="5.5" transform="translate(1551 1320)" fill="#c0d6f2"/></g><g transform="translate(-1489 -1196)"><circle id="Elipse_6-27" data-name="Elipse 6" cx="5.5" cy="5.5" r="5.5" transform="translate(1551 1320)" fill="#c0d6f2"/></g><g transform="translate(-1458 -1196)"><circle id="Elipse_6-28" data-name="Elipse 6" cx="5.5" cy="5.5" r="5.5" transform="translate(1551 1320)" fill="#c0d6f2"/></g><g transform="translate(-1427 -1196)"><circle id="Elipse_6-29" data-name="Elipse 6" cx="5.5" cy="5.5" r="5.5" transform="translate(1551 1320)" fill="#c0d6f2"/></g><g transform="translate(-1396 -1196)"><circle id="Elipse_6-30" data-name="Elipse 6" cx="5.5" cy="5.5" r="5.5" transform="translate(1551 1320)" fill="#c0d6f2"/></g><g transform="translate(-1551 -1165)"><circle id="Elipse_6-31" data-name="Elipse 6" cx="5.5" cy="5.5" r="5.5" transform="translate(1551 1320)" fill="#c0d6f2"/></g><g transform="translate(-1520 -1165)"><circle id="Elipse_6-32" data-name="Elipse 6" cx="5.5" cy="5.5" r="5.5" transform="translate(1551 1320)" fill="#c0d6f2"/></g><g transform="translate(-1489 -1165)"><circle id="Elipse_6-33" data-name="Elipse 6" cx="5.5" cy="5.5" r="5.5" transform="translate(1551 1320)" fill="#c0d6f2"/></g><g transform="translate(-1458 -1165)"><circle id="Elipse_6-34" data-name="Elipse 6" cx="5.5" cy="5.5" r="5.5" transform="translate(1551 1320)" fill="#c0d6f2"/></g><g transform="translate(-1427 -1165)"><circle id="Elipse_6-35" data-name="Elipse 6" cx="5.5" cy="5.5" r="5.5" transform="translate(1551 1320)" fill="#c0d6f2"/></g><g transform="translate(-1396 -1165)"><circle id="Elipse_6-36" data-name="Elipse 6" cx="5.5" cy="5.5" r="5.5" transform="translate(1551 1320)" fill="#c0d6f2"/></g><g transform="translate(-1551 -1134)"><circle id="Elipse_6-37" data-name="Elipse 6" cx="5.5" cy="5.5" r="5.5" transform="translate(1551 1320)" fill="#c0d6f2"/></g><g transform="translate(-1520 -1134)"><circle id="Elipse_6-38" data-name="Elipse 6" cx="5.5" cy="5.5" r="5.5" transform="translate(1551 1320)" fill="#c0d6f2"/></g><g transform="translate(-1489 -1134)"><circle id="Elipse_6-39" data-name="Elipse 6" cx="5.5" cy="5.5" r="5.5" transform="translate(1551 1320)" fill="#c0d6f2"/></g><g transform="translate(-1458 -1134)"><circle id="Elipse_6-40" data-name="Elipse 6" cx="5.5" cy="5.5" r="5.5" transform="translate(1551 1320)" fill="#c0d6f2"/></g><g transform="translate(-1427 -1134)"><circle id="Elipse_6-41" data-name="Elipse 6" cx="5.5" cy="5.5" r="5.5" transform="translate(1551 1320)" fill="#c0d6f2"/></g><g transform="translate(-1396 -1134)"><circle id="Elipse_6-42" data-name="Elipse 6" cx="5.5" cy="5.5" r="5.5" transform="translate(1551 1320)" fill="#c0d6f2"/></g><g transform="translate(-1551 -1103)"><circle id="Elipse_6-43" data-name="Elipse 6" cx="5.5" cy="5.5" r="5.5" transform="translate(1551 1320)" fill="#c0d6f2"/></g><g transform="translate(-1520 -1103)"><circle id="Elipse_6-44" data-name="Elipse 6" cx="5.5" cy="5.5" r="5.5" transform="translate(1551 1320)" fill="#c0d6f2"/></g><g transform="translate(-1489 -1103)"><circle id="Elipse_6-45" data-name="Elipse 6" cx="5.5" cy="5.5" r="5.5" transform="translate(1551 1320)" fill="#c0d6f2"/></g><g transform="translate(-1458 -1103)"><circle id="Elipse_6-46" data-name="Elipse 6" cx="5.5" cy="5.5" r="5.5" transform="translate(1551 1320)" fill="#c0d6f2"/></g><g transform="translate(-1427 -1103)"><circle id="Elipse_6-47" data-name="Elipse 6" cx="5.5" cy="5.5" r="5.5" transform="translate(1551 1320)" fill="#c0d6f2"/></g><g transform="translate(-1396 -1103)"><circle id="Elipse_6-48" data-name="Elipse 6" cx="5.5" cy="5.5" r="5.5" transform="translate(1551 1320)" fill="#c0d6f2"/></g><g transform="translate(-1551 -1072)"><circle id="Elipse_6-49" data-name="Elipse 6" cx="5.5" cy="5.5" r="5.5" transform="translate(1551 1320)" fill="#c0d6f2"/></g><g transform="translate(-1520 -1072)"><circle id="Elipse_6-50" data-name="Elipse 6" cx="5.5" cy="5.5" r="5.5" transform="translate(1551 1320)" fill="#c0d6f2"/></g><g transform="translate(-1489 -1072)"><circle id="Elipse_6-51" data-name="Elipse 6" cx="5.5" cy="5.5" r="5.5" transform="translate(1551 1320)" fill="#c0d6f2"/></g><g transform="translate(-1458 -1072)"><circle id="Elipse_6-52" data-name="Elipse 6" cx="5.5" cy="5.5" r="5.5" transform="translate(1551 1320)" fill="#c0d6f2"/></g><g transform="translate(-1427 -1072)"><circle id="Elipse_6-53" data-name="Elipse 6" cx="5.5" cy="5.5" r="5.5" transform="translate(1551 1320)" fill="#c0d6f2"/></g><g transform="translate(-1396 -1072)"><circle id="Elipse_6-54" data-name="Elipse 6" cx="5.5" cy="5.5" r="5.5" transform="translate(1551 1320)" fill="#c0d6f2"/></g><g transform="translate(-1551 -1041)"><circle id="Elipse_6-55" data-name="Elipse 6" cx="5.5" cy="5.5" r="5.5" transform="translate(1551 1320)" fill="#c0d6f2"/></g><g transform="translate(-1520 -1041)"><circle id="Elipse_6-56" data-name="Elipse 6" cx="5.5" cy="5.5" r="5.5" transform="translate(1551 1320)" fill="#c0d6f2"/></g><g transform="translate(-1489 -1041)"><circle id="Elipse_6-57" data-name="Elipse 6" cx="5.5" cy="5.5" r="5.5" transform="translate(1551 1320)" fill="#c0d6f2"/></g><g transform="translate(-1458 -1041)"><circle id="Elipse_6-58" data-name="Elipse 6" cx="5.5" cy="5.5" r="5.5" transform="translate(1551 1320)" fill="#c0d6f2"/></g><g transform="translate(-1427 -1041)"><circle id="Elipse_6-59" data-name="Elipse 6" cx="5.5" cy="5.5" r="5.5" transform="translate(1551 1320)" fill="#c0d6f2"/></g><g transform="translate(-1396 -1041)"><circle id="Elipse_6-60" data-name="Elipse 6" cx="5.5" cy="5.5" r="5.5" transform="translate(1551 1320)" fill="#c0d6f2"/></g><g transform="translate(-1551 -1010)"><circle id="Elipse_6-61" data-name="Elipse 6" cx="5.5" cy="5.5" r="5.5" transform="translate(1551 1320)" fill="#c0d6f2"/></g><g transform="translate(-1520 -1010)"><circle id="Elipse_6-62" data-name="Elipse 6" cx="5.5" cy="5.5" r="5.5" transform="translate(1551 1320)" fill="#c0d6f2"/></g><g transform="translate(-1489 -1010)"><circle id="Elipse_6-63" data-name="Elipse 6" cx="5.5" cy="5.5" r="5.5" transform="translate(1551 1320)" fill="#c0d6f2"/></g><g transform="translate(-1458 -1010)"><circle id="Elipse_6-64" data-name="Elipse 6" cx="5.5" cy="5.5" r="5.5" transform="translate(1551 1320)" fill="#c0d6f2"/></g><g transform="translate(-1427 -1010)"><circle id="Elipse_6-65" data-name="Elipse 6" cx="5.5" cy="5.5" r="5.5" transform="translate(1551 1320)" fill="#c0d6f2"/></g><g transform="translate(-1396 -1010)"><circle id="Elipse_6-66" data-name="Elipse 6" cx="5.5" cy="5.5" r="5.5" transform="translate(1551 1320)" fill="#c0d6f2"/></g></g></g></svg>